<svg xmlns="http://www.w3.org/2000/svg" width="109.267" height="99.952" viewBox="0 0 109.267 99.952">
  <g id="standings_icon" data-name="standings icon" transform="translate(-864.596 -1874.797)">
    <g id="Group_13" data-name="Group 13">
      <rect id="Rectangle_28" data-name="Rectangle 28" width="33.441" height="67.229" transform="translate(867.512 1904.604)" fill="#fff" stroke="#000" stroke-miterlimit="10" stroke-width="5.831"/>
      <g id="Group_12" data-name="Group 12">
        <path id="Path_2" data-name="Path 2" d="M877.685,1942.932l8.278-10.778a7.982,7.982,0,0,0,1.119-1.921,5,5,0,0,0,.4-1.857v-.032a2.779,2.779,0,0,0-.833-2.153,3.373,3.373,0,0,0-2.367-.765,3.311,3.311,0,0,0-2.352.837,3.771,3.771,0,0,0-1.094,2.368v.015h-3.445v-.015a8.523,8.523,0,0,1,1.2-3.4,6.041,6.041,0,0,1,2.343-2.153,7.133,7.133,0,0,1,3.315-.742,8.436,8.436,0,0,1,3.625.71,5.065,5.065,0,0,1,2.286,2.065,6.431,6.431,0,0,1,.784,3.269v.015a7.038,7.038,0,0,1-.523,2.567,10.954,10.954,0,0,1-1.453,2.583l-6.874,9.121h8.98v3.093H877.685Z"/>
      </g>
    </g>
    <g id="Group_17" data-name="Group 17">
      <rect id="Rectangle_29" data-name="Rectangle 29" width="33.441" height="94.12" transform="translate(903.759 1877.713)" fill="#fff" stroke="#000" stroke-miterlimit="10" stroke-width="5.831"/>
      <g id="Group_14" data-name="Group 14">
        <path id="Path_3" data-name="Path 3" d="M923.835,1932H920.5v-19.643l-3.38,2.024v-3.364l3.38-2.2h3.331Z"/>
      </g>
      <g id="Group_16" data-name="Group 16">
        <rect id="Rectangle_30" data-name="Rectangle 30" width="33.441" height="56.344" transform="translate(937.505 1915.489)" fill="#fff" stroke="#000" stroke-miterlimit="10" stroke-width="5.831"/>
        <g id="Group_15" data-name="Group 15">
          <path id="Path_4" data-name="Path 4" d="M950.87,1952.193a5.949,5.949,0,0,1-2.441-2.057,7.3,7.3,0,0,1-1.167-3.244h3.4a3.449,3.449,0,0,0,.637,1.626,2.939,2.939,0,0,0,1.266.948,4.853,4.853,0,0,0,1.82.311,3.594,3.594,0,0,0,2.564-.86,3.17,3.17,0,0,0,.914-2.424v-.7a3.845,3.845,0,0,0-.865-2.687,3.152,3.152,0,0,0-2.45-.949h-1.681v-3.093h1.681a2.823,2.823,0,0,0,2.156-.813,3.219,3.219,0,0,0,.767-2.3v-.718a2.746,2.746,0,0,0-.808-2.12,3.249,3.249,0,0,0-2.294-.75,3.573,3.573,0,0,0-1.519.311,2.876,2.876,0,0,0-1.134.957,4.287,4.287,0,0,0-.678,1.618h-3.38a8.317,8.317,0,0,1,1.232-3.252,5.985,5.985,0,0,1,2.3-2.058,6.969,6.969,0,0,1,3.184-.7,6.674,6.674,0,0,1,4.751,1.579,5.8,5.8,0,0,1,1.682,4.448v.383a4.924,4.924,0,0,1-.963,3.029,5.435,5.435,0,0,1-2.727,1.882,4.844,4.844,0,0,1,3.012,1.865,6.07,6.07,0,0,1,1.07,3.7v.383a7,7,0,0,1-.8,3.459,5.224,5.224,0,0,1-2.327,2.185,9.237,9.237,0,0,1-7.193.04Z"/>
        </g>
      </g>
    </g>
  </g>
</svg>
